<svg viewBox="0 0 1200 630" xmlns="http://www.w3.org/2000/svg" role="img" aria-label="Dental Bridges">
<defs>
<linearGradient id="bg" x1="0" y1="0" x2="1" y2="1">
<stop offset="0" stop-color="#0e8f7e"/><stop offset="1" stop-color="#0a5f54"/>
</linearGradient>
<linearGradient id="enamel" x1="0" y1="0" x2="0" y2="1">
<stop offset="0" stop-color="#ffffff"/><stop offset="1" stop-color="#dcefe9"/>
</linearGradient>
<radialGradient id="glow" cx="0.5" cy="0.45" r="0.6">
<stop offset="0" stop-color="#ffffff" stop-opacity="0.55"/><stop offset="1" stop-color="#ffffff" stop-opacity="0"/>
</radialGradient>
<pattern id="dots" width="34" height="34" patternUnits="userSpaceOnUse">
<circle cx="3" cy="3" r="2.4" fill="#ffffff" opacity="0.10"/>
</pattern>
</defs>
<rect width="1200" height="630" fill="url(#bg)"/>
<rect width="1200" height="630" fill="url(#dots)"/>
<circle cx="160" cy="120" r="240" fill="#ffffff" opacity="0.06"/>
<circle cx="1060" cy="560" r="280" fill="#06243c" opacity="0.07"/>
<circle cx="600" cy="300" r="250" fill="url(#glow)"/>
<rect x="430" y="360" width="340" height="70" rx="14" fill="#dcefe9" opacity="0.6"/><path d="M 480.0 204.2 C 425.4 204.2 392.6 240.1 394.2 283.8 C 395.8 321.2 405.1 350.8 423.8 383.6 C 433.2 400.8 448.8 399.2 453.5 378.9 C 458.2 357.1 462.8 344.6 472.2 344.6 C 481.6 344.6 486.2 360.2 490.9 380.5 C 497.2 402.3 514.3 400.8 523.7 382.0 C 544.0 347.7 556.4 319.6 561.1 280.6 C 565.8 238.5 534.6 204.2 480.0 204.2 Z" fill="url(#enamel)" stroke="#0a7c6e" stroke-width="7" stroke-linejoin="round"/><path d="M 600.0 187.8 C 542.6 187.8 508.2 225.5 509.8 271.4 C 511.4 310.8 521.3 342.0 541.0 376.4 C 550.8 394.4 567.2 392.8 572.1 371.5 C 577.0 348.5 582.0 335.4 591.8 335.4 C 601.6 335.4 606.6 351.8 611.5 373.1 C 618.0 396.1 636.1 394.4 645.9 374.8 C 667.2 338.7 680.4 309.2 685.3 268.2 C 690.2 223.9 657.4 187.8 600.0 187.8 Z" fill="url(#enamel)" stroke="#c8a84b" stroke-width="8" stroke-linejoin="round"/><path d="M 720.0 204.2 C 665.4 204.2 632.6 240.1 634.2 283.8 C 635.8 321.2 645.1 350.8 663.8 383.6 C 673.2 400.8 688.8 399.2 693.5 378.9 C 698.2 357.1 702.8 344.6 712.2 344.6 C 721.6 344.6 726.2 360.2 730.9 380.5 C 737.2 402.3 754.3 400.8 763.7 382.0 C 784.0 347.7 796.4 319.6 801.1 280.6 C 805.8 238.5 774.6 204.2 720.0 204.2 Z" fill="url(#enamel)" stroke="#0a7c6e" stroke-width="7" stroke-linejoin="round"/><path d="M470 330 L730 330" stroke="#0a7c6e" stroke-width="6"/>

<circle cx="1120" cy="80" r="10" fill="#c8a84b"/>
<circle cx="90" cy="540" r="8" fill="#c8a84b" opacity="0.8"/>
</svg>