<svg viewBox="0 0 1200 630" xmlns="http://www.w3.org/2000/svg" role="img" aria-label="Root Canal Treatment">
<defs>
<linearGradient id="bg" x1="0" y1="0" x2="1" y2="1">
<stop offset="0" stop-color="#0a7c6e"/><stop offset="1" stop-color="#0d5f55"/>
</linearGradient>
<linearGradient id="enamel" x1="0" y1="0" x2="0" y2="1">
<stop offset="0" stop-color="#ffffff"/><stop offset="1" stop-color="#dcefe9"/>
</linearGradient>
<radialGradient id="glow" cx="0.5" cy="0.45" r="0.6">
<stop offset="0" stop-color="#ffffff" stop-opacity="0.55"/><stop offset="1" stop-color="#ffffff" stop-opacity="0"/>
</radialGradient>
<pattern id="dots" width="34" height="34" patternUnits="userSpaceOnUse">
<circle cx="3" cy="3" r="2.4" fill="#ffffff" opacity="0.10"/>
</pattern>
</defs>
<rect width="1200" height="630" fill="url(#bg)"/>
<rect width="1200" height="630" fill="url(#dots)"/>
<circle cx="160" cy="120" r="240" fill="#ffffff" opacity="0.06"/>
<circle cx="1060" cy="560" r="280" fill="#06243c" opacity="0.07"/>
<circle cx="600" cy="300" r="250" fill="url(#glow)"/>
<path d="M 600.0 154.5 C 526.5 154.5 482.4 202.8 484.5 261.6 C 486.6 312.0 499.2 351.9 524.4 396.0 C 537.0 419.1 558.0 417.0 564.3 389.7 C 570.6 360.3 576.9 343.5 589.5 343.5 C 602.1 343.5 608.4 364.5 614.7 391.8 C 623.1 421.2 646.2 419.1 658.8 393.9 C 686.1 347.7 702.9 309.9 709.2 257.4 C 715.5 200.7 673.5 154.5 600.0 154.5 Z" fill="url(#enamel)" stroke="#0a7c6e" stroke-width="7" stroke-linejoin="round"/><path d="M 568 200 C 566 250 560 300 556 345" stroke="#e0564a" stroke-width="9" fill="none" stroke-linecap="round"/><path d="M 632 200 C 636 250 642 300 648 345" stroke="#e0564a" stroke-width="9" fill="none" stroke-linecap="round"/><path d="M 600 185 L 600 250" stroke="#e0564a" stroke-width="9" fill="none" stroke-linecap="round"/><g transform="rotate(18 600 160)"><rect x="592" y="60" width="16" height="120" rx="6" fill="#c8a84b"/><path d="M600 175 l-9 -14 l18 0 z" fill="#06243c"/><path d="M600 70 q-7 12 0 24 q7 -12 0 -24" stroke="#06243c" stroke-width="3" fill="none"/></g>

<circle cx="1120" cy="80" r="10" fill="#c8a84b"/>
<circle cx="90" cy="540" r="8" fill="#c8a84b" opacity="0.8"/>
</svg>