<svg viewBox="0 0 1200 630" xmlns="http://www.w3.org/2000/svg" role="img" aria-label="Wisdom Tooth Removal">
<defs>
<linearGradient id="bg" x1="0" y1="0" x2="1" y2="1">
<stop offset="0" stop-color="#0d7a6e"/><stop offset="1" stop-color="#06443c"/>
</linearGradient>
<linearGradient id="enamel" x1="0" y1="0" x2="0" y2="1">
<stop offset="0" stop-color="#ffffff"/><stop offset="1" stop-color="#dcefe9"/>
</linearGradient>
<radialGradient id="glow" cx="0.5" cy="0.45" r="0.6">
<stop offset="0" stop-color="#ffffff" stop-opacity="0.55"/><stop offset="1" stop-color="#ffffff" stop-opacity="0"/>
</radialGradient>
<pattern id="dots" width="34" height="34" patternUnits="userSpaceOnUse">
<circle cx="3" cy="3" r="2.4" fill="#ffffff" opacity="0.10"/>
</pattern>
</defs>
<rect width="1200" height="630" fill="url(#bg)"/>
<rect width="1200" height="630" fill="url(#dots)"/>
<circle cx="160" cy="120" r="240" fill="#ffffff" opacity="0.06"/>
<circle cx="1060" cy="560" r="280" fill="#06243c" opacity="0.07"/>
<circle cx="600" cy="300" r="250" fill="url(#glow)"/>
<g transform="rotate(-16 600 280)"><path d="M 600.0 153.5 C 519.5 153.5 471.2 206.4 473.5 270.8 C 475.8 326.0 489.6 369.7 517.2 418.0 C 531.0 443.3 554.0 441.0 560.9 411.1 C 567.8 378.9 574.7 360.5 588.5 360.5 C 602.3 360.5 609.2 383.5 616.1 413.4 C 625.3 445.6 650.6 443.3 664.4 415.7 C 694.3 365.1 712.7 323.7 719.6 266.2 C 726.5 204.1 680.5 153.5 600.0 153.5 Z" fill="url(#enamel)" stroke="#0a7c6e" stroke-width="7" stroke-linejoin="round"/></g><path d="M760 250 L820 250 M800 230 L820 250 L800 270" stroke="#c8a84b" stroke-width="9" fill="none" stroke-linecap="round" stroke-linejoin="round"/>

<circle cx="1120" cy="80" r="10" fill="#c8a84b"/>
<circle cx="90" cy="540" r="8" fill="#c8a84b" opacity="0.8"/>
</svg>