<svg viewBox="0 0 1200 630" xmlns="http://www.w3.org/2000/svg" role="img" aria-label="Braces vs Aligners">
<defs>
<linearGradient id="bg" x1="0" y1="0" x2="1" y2="1">
<stop offset="0" stop-color="#2a8fb0"/><stop offset="1" stop-color="#155f78"/>
</linearGradient>
<linearGradient id="enamel" x1="0" y1="0" x2="0" y2="1">
<stop offset="0" stop-color="#ffffff"/><stop offset="1" stop-color="#dcefe9"/>
</linearGradient>
<radialGradient id="glow" cx="0.5" cy="0.45" r="0.6">
<stop offset="0" stop-color="#ffffff" stop-opacity="0.55"/><stop offset="1" stop-color="#ffffff" stop-opacity="0"/>
</radialGradient>
<pattern id="dots" width="34" height="34" patternUnits="userSpaceOnUse">
<circle cx="3" cy="3" r="2.4" fill="#ffffff" opacity="0.10"/>
</pattern>
</defs>
<rect width="1200" height="630" fill="url(#bg)"/>
<rect width="1200" height="630" fill="url(#dots)"/>
<circle cx="160" cy="120" r="240" fill="#ffffff" opacity="0.06"/>
<circle cx="1060" cy="560" r="280" fill="#06243c" opacity="0.07"/>
<circle cx="600" cy="300" r="250" fill="url(#glow)"/>
<path d="M 540.0 178.8 C 475.6 178.8 437.0 221.1 438.8 272.6 C 440.6 316.8 451.7 351.8 473.8 390.4 C 484.8 410.6 503.2 408.8 508.7 384.9 C 514.2 359.1 519.8 344.4 530.8 344.4 C 541.8 344.4 547.4 362.8 552.9 386.7 C 560.2 412.5 580.5 410.6 591.5 388.6 C 615.4 348.1 630.2 315.0 635.7 269.0 C 641.2 219.3 604.4 178.8 540.0 178.8 Z" fill="url(#enamel)" stroke="#0a7c6e" stroke-width="7" stroke-linejoin="round"/><rect x="512" y="250" width="56" height="44" rx="8" fill="#06243c"/><circle cx="540" cy="272" r="10" fill="#c8a84b"/><path d="M470 272 L760 272" stroke="#9fb0ad" stroke-width="7"/><path d="M 700.0 178.8 C 635.6 178.8 597.0 221.1 598.8 272.6 C 600.6 316.8 611.7 351.8 633.8 390.4 C 644.8 410.6 663.2 408.8 668.7 384.9 C 674.2 359.1 679.8 344.4 690.8 344.4 C 701.8 344.4 707.4 362.8 712.9 386.7 C 720.2 412.5 740.5 410.6 751.5 388.6 C 775.4 348.1 790.2 315.0 795.7 269.0 C 801.2 219.3 764.4 178.8 700.0 178.8 Z" fill="#ffffff" stroke="#bfe9e0" stroke-width="6" stroke-linejoin="round"/><path d="M 648 200 Q 700 175 752 200 Q 770 280 748 350 Q 700 372 652 350 Q 632 280 648 200" fill="#9be8da" opacity="0.28" stroke="#12a992" stroke-width="4"/>
<g>
<rect x="417" y="500" width="366" height="62" rx="31" fill="#06243c" opacity="0.92"/>
<rect x="417" y="500" width="6" height="62" rx="3" fill="#c8a84b"/>
<text x="600" y="540" font-family="'Segoe UI',Arial,sans-serif" font-size="27" font-weight="700" fill="#ffffff" text-anchor="middle" dominant-baseline="middle">Braces vs Aligners</text>
</g>
<circle cx="1120" cy="80" r="10" fill="#c8a84b"/>
<circle cx="90" cy="540" r="8" fill="#c8a84b" opacity="0.8"/>
</svg>