<svg viewBox="0 0 1200 630" xmlns="http://www.w3.org/2000/svg" role="img" aria-label="Zirconium Crowns">
<defs>
<linearGradient id="bg" x1="0" y1="0" x2="1" y2="1">
<stop offset="0" stop-color="#c89b3c"/><stop offset="1" stop-color="#8a6a1f"/>
</linearGradient>
<linearGradient id="enamel" x1="0" y1="0" x2="0" y2="1">
<stop offset="0" stop-color="#ffffff"/><stop offset="1" stop-color="#dcefe9"/>
</linearGradient>
<radialGradient id="glow" cx="0.5" cy="0.45" r="0.6">
<stop offset="0" stop-color="#ffffff" stop-opacity="0.55"/><stop offset="1" stop-color="#ffffff" stop-opacity="0"/>
</radialGradient>
<pattern id="dots" width="34" height="34" patternUnits="userSpaceOnUse">
<circle cx="3" cy="3" r="2.4" fill="#ffffff" opacity="0.10"/>
</pattern>
</defs>
<rect width="1200" height="630" fill="url(#bg)"/>
<rect width="1200" height="630" fill="url(#dots)"/>
<circle cx="160" cy="120" r="240" fill="#ffffff" opacity="0.06"/>
<circle cx="1060" cy="560" r="280" fill="#06243c" opacity="0.07"/>
<circle cx="600" cy="300" r="250" fill="url(#glow)"/>
<path d="M560 360 L640 360 L632 440 Q600 458 568 440 Z" fill="#dcefe9" stroke="#0a7c6e" stroke-width="5"/><path d="M 600.0 155.5 C 533.5 155.5 493.6 199.2 495.5 252.4 C 497.4 298.0 508.8 334.1 531.6 374.0 C 543.0 394.9 562.0 393.0 567.7 368.3 C 573.4 341.7 579.1 326.5 590.5 326.5 C 601.9 326.5 607.6 345.5 613.3 370.2 C 620.9 396.8 641.8 394.9 653.2 372.1 C 677.9 330.3 693.1 296.1 698.8 248.6 C 704.5 197.3 666.5 155.5 600.0 155.5 Z" fill="url(#enamel)" stroke="#0a7c6e" stroke-width="7" stroke-linejoin="round"/><path d="M540 330 Q600 350 660 330" stroke="#c8a84b" stroke-width="5" fill="none"/><path d="M 672 190 L 677.6 204.4 L 692 210 L 677.6 215.6 L 672 230 L 666.4 215.6 L 652 210 L 666.4 204.4 Z" fill="#c8a84b"/>
<g>
<rect x="434" y="500" width="332" height="62" rx="31" fill="#06243c" opacity="0.92"/>
<rect x="434" y="500" width="6" height="62" rx="3" fill="#ffffff"/>
<text x="600" y="540" font-family="'Segoe UI',Arial,sans-serif" font-size="27" font-weight="700" fill="#ffffff" text-anchor="middle" dominant-baseline="middle">Zirconium Crowns</text>
</g>
<circle cx="1120" cy="80" r="10" fill="#c8a84b"/>
<circle cx="90" cy="540" r="8" fill="#ffffff" opacity="0.8"/>
</svg>