<svg viewBox="0 0 1200 630" xmlns="http://www.w3.org/2000/svg" role="img" aria-label="Complete Dentures">
<defs>
<linearGradient id="bg" x1="0" y1="0" x2="1" y2="1">
<stop offset="0" stop-color="#5b8fb0"/><stop offset="1" stop-color="#2f5f78"/>
</linearGradient>
<linearGradient id="enamel" x1="0" y1="0" x2="0" y2="1">
<stop offset="0" stop-color="#ffffff"/><stop offset="1" stop-color="#dcefe9"/>
</linearGradient>
<radialGradient id="glow" cx="0.5" cy="0.45" r="0.6">
<stop offset="0" stop-color="#ffffff" stop-opacity="0.55"/><stop offset="1" stop-color="#ffffff" stop-opacity="0"/>
</radialGradient>
<pattern id="dots" width="34" height="34" patternUnits="userSpaceOnUse">
<circle cx="3" cy="3" r="2.4" fill="#ffffff" opacity="0.10"/>
</pattern>
</defs>
<rect width="1200" height="630" fill="url(#bg)"/>
<rect width="1200" height="630" fill="url(#dots)"/>
<circle cx="160" cy="120" r="240" fill="#ffffff" opacity="0.06"/>
<circle cx="1060" cy="560" r="280" fill="#06243c" opacity="0.07"/>
<circle cx="600" cy="300" r="250" fill="url(#glow)"/>
<path d="M430 250 Q600 200 770 250 Q800 360 740 430 Q600 470 460 430 Q400 360 430 250 Z" fill="#f3a6a0"/><path d="M455 270 Q600 232 745 270 Q740 320 720 350 Q600 372 480 350 Q460 320 455 270 Z" fill="#ffffff" stroke="#d8f5ef" stroke-width="3"/><rect x="478" y="270" width="34" height="78" rx="12" fill="#ffffff" stroke="#dcefe9" stroke-width="3"/><rect x="520" y="270" width="34" height="78" rx="12" fill="#ffffff" stroke="#dcefe9" stroke-width="3"/><rect x="562" y="270" width="34" height="78" rx="12" fill="#ffffff" stroke="#dcefe9" stroke-width="3"/><rect x="604" y="270" width="34" height="78" rx="12" fill="#ffffff" stroke="#dcefe9" stroke-width="3"/><rect x="646" y="270" width="34" height="78" rx="12" fill="#ffffff" stroke="#dcefe9" stroke-width="3"/><rect x="688" y="270" width="34" height="78" rx="12" fill="#ffffff" stroke="#dcefe9" stroke-width="3"/>
<g>
<rect x="426" y="500" width="349" height="62" rx="31" fill="#06243c" opacity="0.92"/>
<rect x="426" y="500" width="6" height="62" rx="3" fill="#c8a84b"/>
<text x="600" y="540" font-family="'Segoe UI',Arial,sans-serif" font-size="27" font-weight="700" fill="#ffffff" text-anchor="middle" dominant-baseline="middle">Complete Dentures</text>
</g>
<circle cx="1120" cy="80" r="10" fill="#c8a84b"/>
<circle cx="90" cy="540" r="8" fill="#c8a84b" opacity="0.8"/>
</svg>