<svg viewBox="0 0 1200 630" xmlns="http://www.w3.org/2000/svg" role="img" aria-label="5 Signs You Need a Dentist">
<defs>
<linearGradient id="bg" x1="0" y1="0" x2="1" y2="1">
<stop offset="0" stop-color="#0d7a6e"/><stop offset="1" stop-color="#06443c"/>
</linearGradient>
<linearGradient id="enamel" x1="0" y1="0" x2="0" y2="1">
<stop offset="0" stop-color="#ffffff"/><stop offset="1" stop-color="#dcefe9"/>
</linearGradient>
<radialGradient id="glow" cx="0.5" cy="0.45" r="0.6">
<stop offset="0" stop-color="#ffffff" stop-opacity="0.55"/><stop offset="1" stop-color="#ffffff" stop-opacity="0"/>
</radialGradient>
<pattern id="dots" width="34" height="34" patternUnits="userSpaceOnUse">
<circle cx="3" cy="3" r="2.4" fill="#ffffff" opacity="0.10"/>
</pattern>
</defs>
<rect width="1200" height="630" fill="url(#bg)"/>
<rect width="1200" height="630" fill="url(#dots)"/>
<circle cx="160" cy="120" r="240" fill="#ffffff" opacity="0.06"/>
<circle cx="1060" cy="560" r="280" fill="#06243c" opacity="0.07"/>
<circle cx="600" cy="300" r="250" fill="url(#glow)"/>
<path d="M 560.0 175.0 C 490.0 175.0 448.0 221.0 450.0 277.0 C 452.0 325.0 464.0 363.0 488.0 405.0 C 500.0 427.0 520.0 425.0 526.0 399.0 C 532.0 371.0 538.0 355.0 550.0 355.0 C 562.0 355.0 568.0 375.0 574.0 401.0 C 582.0 429.0 604.0 427.0 616.0 403.0 C 642.0 359.0 658.0 323.0 664.0 273.0 C 670.0 219.0 630.0 175.0 560.0 175.0 Z" fill="url(#enamel)" stroke="#0a7c6e" stroke-width="7" stroke-linejoin="round"/><g transform="translate(690,250)"><circle cx="0" cy="0" r="48" fill="none" stroke="#c8a84b" stroke-width="10"/><circle cx="0" cy="0" r="38" fill="#ffffff" opacity="0.25"/><rect x="30" y="30" width="58" height="16" rx="8" transform="rotate(45 30 30)" fill="#c8a84b"/><text x="0" y="12" font-family="Arial" font-size="46" font-weight="800" fill="#0a7c6e" text-anchor="middle">5</text></g>
<g>
<rect x="349" y="500" width="502" height="62" rx="31" fill="#06243c" opacity="0.92"/>
<rect x="349" y="500" width="6" height="62" rx="3" fill="#c8a84b"/>
<text x="600" y="540" font-family="'Segoe UI',Arial,sans-serif" font-size="27" font-weight="700" fill="#ffffff" text-anchor="middle" dominant-baseline="middle">5 Signs You Need a Dentist</text>
</g>
<circle cx="1120" cy="80" r="10" fill="#c8a84b"/>
<circle cx="90" cy="540" r="8" fill="#c8a84b" opacity="0.8"/>
</svg>