<svg viewBox="0 0 1200 630" xmlns="http://www.w3.org/2000/svg" role="img" aria-label="Gum Disease &amp; Pyorrhea">
<defs>
<linearGradient id="bg" x1="0" y1="0" x2="1" y2="1">
<stop offset="0" stop-color="#0d7a6e"/><stop offset="1" stop-color="#5a2a26"/>
</linearGradient>
<linearGradient id="enamel" x1="0" y1="0" x2="0" y2="1">
<stop offset="0" stop-color="#ffffff"/><stop offset="1" stop-color="#dcefe9"/>
</linearGradient>
<radialGradient id="glow" cx="0.5" cy="0.45" r="0.6">
<stop offset="0" stop-color="#ffffff" stop-opacity="0.55"/><stop offset="1" stop-color="#ffffff" stop-opacity="0"/>
</radialGradient>
<pattern id="dots" width="34" height="34" patternUnits="userSpaceOnUse">
<circle cx="3" cy="3" r="2.4" fill="#ffffff" opacity="0.10"/>
</pattern>
</defs>
<rect width="1200" height="630" fill="url(#bg)"/>
<rect width="1200" height="630" fill="url(#dots)"/>
<circle cx="160" cy="120" r="240" fill="#ffffff" opacity="0.06"/>
<circle cx="1060" cy="560" r="280" fill="#06243c" opacity="0.07"/>
<circle cx="600" cy="300" r="250" fill="url(#glow)"/>
<path d="M450 330 Q600 300 750 330 L750 430 Q600 460 450 430 Z" fill="#e0564a"/><path d="M450 330 Q600 300 750 330" stroke="#c4382e" stroke-width="6" fill="none"/><path d="M 600.0 148.8 C 535.6 148.8 497.0 191.1 498.8 242.6 C 500.6 286.8 511.7 321.8 533.8 360.4 C 544.8 380.6 563.2 378.8 568.7 354.9 C 574.2 329.1 579.8 314.4 590.8 314.4 C 601.8 314.4 607.4 332.8 612.9 356.7 C 620.2 382.5 640.5 380.6 651.5 358.6 C 675.4 318.1 690.2 285.0 695.7 239.0 C 701.2 189.3 664.4 148.8 600.0 148.8 Z" fill="url(#enamel)" stroke="#0a7c6e" stroke-width="6" stroke-linejoin="round"/><circle cx="510" cy="345" r="8" fill="#ffd0cb"/><circle cx="690" cy="348" r="7" fill="#ffd0cb"/>
<g>
<rect x="383" y="500" width="434" height="62" rx="31" fill="#06243c" opacity="0.92"/>
<rect x="383" y="500" width="6" height="62" rx="3" fill="#c8a84b"/>
<text x="600" y="540" font-family="'Segoe UI',Arial,sans-serif" font-size="27" font-weight="700" fill="#ffffff" text-anchor="middle" dominant-baseline="middle">Gum Disease &amp; Pyorrhea</text>
</g>
<circle cx="1120" cy="80" r="10" fill="#c8a84b"/>
<circle cx="90" cy="540" r="8" fill="#c8a84b" opacity="0.8"/>
</svg>