<svg viewBox="0 0 1200 630" xmlns="http://www.w3.org/2000/svg" role="img" aria-label="Tooth Sensitivity">
<defs>
<linearGradient id="bg" x1="0" y1="0" x2="1" y2="1">
<stop offset="0" stop-color="#2a8fb0"/><stop offset="1" stop-color="#155f78"/>
</linearGradient>
<linearGradient id="enamel" x1="0" y1="0" x2="0" y2="1">
<stop offset="0" stop-color="#ffffff"/><stop offset="1" stop-color="#dcefe9"/>
</linearGradient>
<radialGradient id="glow" cx="0.5" cy="0.45" r="0.6">
<stop offset="0" stop-color="#ffffff" stop-opacity="0.55"/><stop offset="1" stop-color="#ffffff" stop-opacity="0"/>
</radialGradient>
<pattern id="dots" width="34" height="34" patternUnits="userSpaceOnUse">
<circle cx="3" cy="3" r="2.4" fill="#ffffff" opacity="0.10"/>
</pattern>
</defs>
<rect width="1200" height="630" fill="url(#bg)"/>
<rect width="1200" height="630" fill="url(#dots)"/>
<circle cx="160" cy="120" r="240" fill="#ffffff" opacity="0.06"/>
<circle cx="1060" cy="560" r="280" fill="#06243c" opacity="0.07"/>
<circle cx="600" cy="300" r="250" fill="url(#glow)"/>
<path d="M 600.0 164.5 C 526.5 164.5 482.4 212.8 484.5 271.6 C 486.6 322.0 499.2 361.9 524.4 406.0 C 537.0 429.1 558.0 427.0 564.3 399.7 C 570.6 370.3 576.9 353.5 589.5 353.5 C 602.1 353.5 608.4 374.5 614.7 401.8 C 623.1 431.2 646.2 429.1 658.8 403.9 C 686.1 357.7 702.9 319.9 709.2 267.4 C 715.5 210.7 673.5 164.5 600.0 164.5 Z" fill="url(#enamel)" stroke="#0a7c6e" stroke-width="7" stroke-linejoin="round"/><path d="M612 215 L584 270 L606 270 L588 330 L636 255 L612 255 Z" fill="#c8a84b" stroke="#06243c" stroke-width="3" stroke-linejoin="round"/><path d="M470 250 q-20 30 0 60 M748 250 q20 30 0 60" stroke="#7fb7ad" stroke-width="7" fill="none" stroke-linecap="round"/>
<g>
<rect x="426" y="500" width="349" height="62" rx="31" fill="#06243c" opacity="0.92"/>
<rect x="426" y="500" width="6" height="62" rx="3" fill="#c8a84b"/>
<text x="600" y="540" font-family="'Segoe UI',Arial,sans-serif" font-size="27" font-weight="700" fill="#ffffff" text-anchor="middle" dominant-baseline="middle">Tooth Sensitivity</text>
</g>
<circle cx="1120" cy="80" r="10" fill="#c8a84b"/>
<circle cx="90" cy="540" r="8" fill="#c8a84b" opacity="0.8"/>
</svg>