<svg viewBox="0 0 1200 630" xmlns="http://www.w3.org/2000/svg" role="img" aria-label="Smile Makeover">
<defs>
<linearGradient id="bg" x1="0" y1="0" x2="1" y2="1">
<stop offset="0" stop-color="#1aa78f"/><stop offset="1" stop-color="#9a7a1f"/>
</linearGradient>
<linearGradient id="enamel" x1="0" y1="0" x2="0" y2="1">
<stop offset="0" stop-color="#ffffff"/><stop offset="1" stop-color="#dcefe9"/>
</linearGradient>
<radialGradient id="glow" cx="0.5" cy="0.45" r="0.6">
<stop offset="0" stop-color="#ffffff" stop-opacity="0.55"/><stop offset="1" stop-color="#ffffff" stop-opacity="0"/>
</radialGradient>
<pattern id="dots" width="34" height="34" patternUnits="userSpaceOnUse">
<circle cx="3" cy="3" r="2.4" fill="#ffffff" opacity="0.10"/>
</pattern>
</defs>
<rect width="1200" height="630" fill="url(#bg)"/>
<rect width="1200" height="630" fill="url(#dots)"/>
<circle cx="160" cy="120" r="240" fill="#ffffff" opacity="0.06"/>
<circle cx="1060" cy="560" r="280" fill="#06243c" opacity="0.07"/>
<circle cx="600" cy="300" r="250" fill="url(#glow)"/>
<path d="M440 250 Q600 200 760 250 Q740 410 600 430 Q460 410 440 250 Z" fill="#06243c"/><path d="M470 270 Q600 240 730 270 Q715 360 600 372 Q485 360 470 270 Z" fill="#ffffff"/><rect x="486" y="272" width="30" height="62" rx="10" fill="#fff" stroke="#dcefe9" stroke-width="2"/><rect x="524" y="272" width="30" height="62" rx="10" fill="#fff" stroke="#dcefe9" stroke-width="2"/><rect x="562" y="272" width="30" height="62" rx="10" fill="#fff" stroke="#dcefe9" stroke-width="2"/><rect x="600" y="272" width="30" height="62" rx="10" fill="#fff" stroke="#dcefe9" stroke-width="2"/><rect x="638" y="272" width="30" height="62" rx="10" fill="#fff" stroke="#dcefe9" stroke-width="2"/><rect x="676" y="272" width="30" height="62" rx="10" fill="#fff" stroke="#dcefe9" stroke-width="2"/><path d="M470 285 Q600 405 730 285" stroke="#f3a6a0" stroke-width="0" fill="none"/><path d="M 690 180 L 698.4 201.6 L 720 210 L 698.4 218.4 L 690 240 L 681.6 218.4 L 660 210 L 681.6 201.6 Z" fill="#c8a84b"/><path d="M 520 195 L 525.6 209.4 L 540 215 L 525.6 220.6 L 520 235 L 514.4 220.6 L 500 215 L 514.4 209.4 Z" fill="#e8cc78"/>
<g>
<rect x="450" y="500" width="300" height="62" rx="31" fill="#06243c" opacity="0.92"/>
<rect x="450" y="500" width="6" height="62" rx="3" fill="#c8a84b"/>
<text x="600" y="540" font-family="'Segoe UI',Arial,sans-serif" font-size="27" font-weight="700" fill="#ffffff" text-anchor="middle" dominant-baseline="middle">Smile Makeover</text>
</g>
<circle cx="1120" cy="80" r="10" fill="#c8a84b"/>
<circle cx="90" cy="540" r="8" fill="#c8a84b" opacity="0.8"/>
</svg>