<svg viewBox="0 0 1200 630" xmlns="http://www.w3.org/2000/svg" role="img" aria-label="Tooth Decay &amp; Cavities">
<defs>
<linearGradient id="bg" x1="0" y1="0" x2="1" y2="1">
<stop offset="0" stop-color="#3a7f6e"/><stop offset="1" stop-color="#5a3a1e"/>
</linearGradient>
<linearGradient id="enamel" x1="0" y1="0" x2="0" y2="1">
<stop offset="0" stop-color="#ffffff"/><stop offset="1" stop-color="#dcefe9"/>
</linearGradient>
<radialGradient id="glow" cx="0.5" cy="0.45" r="0.6">
<stop offset="0" stop-color="#ffffff" stop-opacity="0.55"/><stop offset="1" stop-color="#ffffff" stop-opacity="0"/>
</radialGradient>
<pattern id="dots" width="34" height="34" patternUnits="userSpaceOnUse">
<circle cx="3" cy="3" r="2.4" fill="#ffffff" opacity="0.10"/>
</pattern>
</defs>
<rect width="1200" height="630" fill="url(#bg)"/>
<rect width="1200" height="630" fill="url(#dots)"/>
<circle cx="160" cy="120" r="240" fill="#ffffff" opacity="0.06"/>
<circle cx="1060" cy="560" r="280" fill="#06243c" opacity="0.07"/>
<circle cx="600" cy="300" r="250" fill="url(#glow)"/>
<path d="M 600.0 159.5 C 526.5 159.5 482.4 207.8 484.5 266.6 C 486.6 317.0 499.2 356.9 524.4 401.0 C 537.0 424.1 558.0 422.0 564.3 394.7 C 570.6 365.3 576.9 348.5 589.5 348.5 C 602.1 348.5 608.4 369.5 614.7 396.8 C 623.1 426.2 646.2 424.1 658.8 398.9 C 686.1 352.7 702.9 314.9 709.2 262.4 C 715.5 205.7 673.5 159.5 600.0 159.5 Z" fill="url(#enamel)" stroke="#0a7c6e" stroke-width="7" stroke-linejoin="round"/><circle cx="640" cy="250" r="26" fill="#5b3a1e"/><circle cx="640" cy="250" r="14" fill="#2e1c0e"/><circle cx="556" cy="300" r="12" fill="#7a5230"/><g transform="translate(708,180)"><path d="M 0 0 L 0.0 0.0 L 0 0 L 0.0 0.0 L 0 0 L 0.0 0.0 L 0 0 L 0.0 0.0 Z" fill="#c8a84b"/></g>
<g>
<rect x="383" y="500" width="434" height="62" rx="31" fill="#06243c" opacity="0.92"/>
<rect x="383" y="500" width="6" height="62" rx="3" fill="#c8a84b"/>
<text x="600" y="540" font-family="'Segoe UI',Arial,sans-serif" font-size="27" font-weight="700" fill="#ffffff" text-anchor="middle" dominant-baseline="middle">Tooth Decay &amp; Cavities</text>
</g>
<circle cx="1120" cy="80" r="10" fill="#c8a84b"/>
<circle cx="90" cy="540" r="8" fill="#c8a84b" opacity="0.8"/>
</svg>